<?xml version="1.0" standalone="no"?>
<!DOCTYPE svg PUBLIC "-//W3C//DTD SVG 20010904//EN"
 "http://www.w3.org/TR/2001/REC-SVG-20010904/DTD/svg10.dtd">
<svg version="1.0" xmlns="http://www.w3.org/2000/svg"
 width="500.000000pt" height="500.000000pt" viewBox="0 0 500.000000 500.000000"
 preserveAspectRatio="xMidYMid meet">

<g transform="translate(0.000000,500.000000) scale(0.100000,-0.100000)"
fill="#000000" stroke="none">
<path d="M2255 3995 c-199 -37 -341 -88 -500 -177 -128 -72 -224 -149 -346
-275 -164 -170 -279 -358 -349 -573 -94 -289 -95 -651 0 -939 148 -454 507
-818 953 -966 183 -61 248 -70 487 -70 241 0 307 10 490 72 445 151 800 511
949 961 57 172 66 238 66 467 0 234 -10 300 -70 483 -106 317 -318 596 -593
781 -148 100 -310 168 -522 222 -113 28 -442 36 -565 14z m471 -90 c617 -107
1079 -569 1179 -1180 20 -119 19 -347 -1 -466 -47 -280 -190 -555 -399 -765
-162 -163 -337 -272 -551 -343 -162 -54 -275 -72 -452 -72 -302 0 -542 73
-788 236 -312 208 -520 509 -606 880 -30 130 -37 396 -13 536 80 479 387 871
840 1074 105 47 258 90 366 104 110 14 330 12 425 -4z"/>
<path d="M2230 3561 c0 -4 36 -41 81 -81 57 -52 77 -76 69 -84 -7 -7 -33 12
-90 69 -44 43 -82 76 -86 72 -4 -3 28 -39 71 -80 43 -40 76 -79 74 -85 -2 -7
-40 22 -84 63 -44 41 -84 75 -90 75 -5 0 26 -36 69 -79 46 -47 76 -84 71 -90
-4 -8 -35 19 -84 71 -43 45 -80 78 -83 72 -8 -12 113 -163 144 -180 13 -8 37
-13 54 -14 33 0 99 -38 99 -57 0 -7 -53 -66 -117 -132 -65 -65 -118 -124 -118
-129 0 -26 14 -42 36 -42 18 0 56 32 140 117 l115 116 118 -117 c120 -120 141
-132 165 -94 9 15 -7 36 -112 141 -67 67 -122 127 -122 133 0 5 15 24 33 42
30 29 37 32 79 26 57 -8 106 14 153 69 56 65 59 130 9 180 -21 21 -36 27 -71
27 -50 0 -75 -11 -116 -49 -44 -40 -58 -75 -56 -138 2 -53 1 -58 -34 -89 -20
-19 -43 -34 -51 -34 -23 0 -65 57 -71 98 -3 20 -8 47 -11 59 -2 14 -39 50 -87
88 -81 64 -97 73 -97 56z"/>
<path d="M1533 2683 c15 -4 17 -18 17 -113 0 -95 -2 -109 -17 -113 -10 -3 0
-5 22 -5 22 0 34 2 28 5 -9 3 -13 28 -13 76 l1 72 40 -79 c22 -43 42 -76 44
-74 2 2 22 46 44 98 l40 95 1 -92 c0 -79 -2 -92 -17 -96 -10 -3 9 -5 42 -5 33
0 52 2 43 5 -16 4 -18 18 -18 113 0 95 2 109 18 113 9 3 -2 5 -25 6 l-42 1
-32 -80 c-18 -44 -36 -80 -40 -80 -3 0 -23 36 -43 80 -36 80 -36 80 -74 79
-20 -1 -29 -3 -19 -6z"/>
<path d="M1883 2683 c15 -4 17 -18 17 -113 0 -95 -2 -109 -17 -113 -10 -3 26
-5 80 -6 l97 -1 0 43 -1 42 -17 -35 c-14 -29 -23 -35 -55 -38 l-37 -3 0 55 0
55 43 4 42 4 -42 1 -43 2 0 50 c0 48 1 50 28 50 35 0 52 -12 68 -47 l12 -28 1
43 1 42 -97 -1 c-54 -1 -90 -3 -80 -6z"/>
<path d="M2133 2683 c15 -4 17 -18 17 -113 0 -95 -2 -109 -17 -113 -10 -3 9
-5 42 -5 33 0 52 2 43 5 -14 3 -18 15 -18 54 0 27 4 49 9 49 5 0 23 -25 40
-55 28 -50 34 -55 66 -55 33 0 34 1 18 18 -10 10 -27 34 -38 55 l-20 37 23 16
c15 10 22 25 22 49 0 51 -27 65 -125 64 -44 -1 -72 -3 -62 -6z m123 -28 c22
-34 3 -85 -32 -85 -22 0 -24 4 -24 55 0 48 2 55 20 55 11 0 27 -11 36 -25z"/>
<path d="M2439 2667 c-41 -27 -57 -78 -43 -134 16 -65 97 -101 168 -74 17 7
26 7 30 -2 2 -7 5 7 5 31 1 26 -3 41 -9 37 -5 -3 -10 -12 -10 -20 0 -17 -38
-45 -63 -45 -10 0 -29 11 -42 25 -21 20 -25 34 -25 85 0 51 4 65 25 85 39 40
74 30 112 -31 10 -16 12 -13 12 26 0 25 -3 40 -5 33 -4 -9 -13 -9 -30 -2 -42
15 -89 10 -125 -14z"/>
<path d="M2739 2663 c-6 -16 -24 -64 -40 -108 -16 -44 -37 -86 -46 -92 -14
-11 -11 -13 23 -12 21 1 31 3 21 6 -12 3 -16 10 -13 20 3 8 9 26 12 39 5 21
12 24 48 24 40 0 43 -2 54 -37 9 -29 9 -39 -1 -45 -7 -4 12 -8 42 -8 46 0 52
2 39 13 -8 6 -35 60 -58 120 -44 111 -62 129 -81 80z m24 -70 l17 -43 -34 0
-35 0 16 46 c8 25 16 44 17 42 2 -2 10 -22 19 -45z"/>
<path d="M2943 2683 c15 -4 17 -18 17 -113 0 -95 -2 -109 -17 -114 -10 -3 21
-4 69 -3 83 2 89 4 118 32 39 39 48 90 25 138 -23 49 -66 67 -157 66 -40 -1
-65 -3 -55 -6z m143 -24 c14 -16 19 -36 19 -83 0 -78 -22 -116 -65 -116 l-30
0 0 110 0 110 28 0 c17 0 37 -9 48 -21z"/>
<path d="M3279 2667 c-45 -30 -63 -83 -46 -134 41 -127 235 -98 237 35 1 99
-108 155 -191 99z m97 5 c33 -22 46 -124 22 -177 -13 -30 -48 -41 -77 -26 -27
15 -36 57 -33 139 3 51 53 88 88 64z"/>
<path d="M1761 2237 c-38 -19 -63 -61 -65 -105 -2 -88 53 -128 160 -117 l64 7
0 48 c0 29 5 50 13 53 6 3 -15 5 -48 5 -33 0 -52 -2 -42 -5 13 -3 17 -15 17
-49 0 -38 -3 -44 -24 -50 -13 -3 -33 -1 -45 5 -38 21 -50 127 -20 182 21 40
104 29 115 -16 9 -36 24 -31 24 9 0 32 -2 34 -46 40 -64 8 -75 8 -103 -7z"/>
<path d="M2081 2228 c-5 -13 -23 -61 -41 -108 -18 -47 -39 -91 -48 -97 -13
-11 -10 -13 24 -12 21 1 31 3 22 6 -22 5 -22 5 -4 48 13 31 19 35 54 35 36 0
39 -3 50 -37 9 -29 9 -39 -1 -45 -7 -4 13 -8 43 -8 38 1 50 3 39 10 -8 5 -35
59 -59 120 -43 111 -62 132 -79 88z m22 -75 l17 -43 -34 0 -35 0 16 46 c8 25
16 44 17 42 2 -2 10 -22 19 -45z"/>
<path d="M2283 2243 c15 -4 17 -18 17 -113 0 -95 -2 -109 -17 -113 -10 -3 26
-5 80 -6 l97 -1 -1 48 -1 47 -15 -35 c-18 -41 -29 -50 -65 -50 l-28 0 0 109
c0 106 1 110 23 114 12 2 -7 4 -43 4 -36 1 -57 -1 -47 -4z"/>
<path d="M2502 2243 c13 -3 17 -21 20 -94 3 -85 5 -92 31 -115 49 -42 127 -28
146 27 6 17 11 65 11 105 0 61 3 73 18 77 9 3 -3 5 -28 5 -25 0 -37 -2 -27 -5
15 -4 17 -17 17 -94 0 -76 -3 -92 -20 -109 -24 -24 -53 -26 -74 -4 -12 12 -16
37 -16 109 0 81 2 94 18 98 9 3 -12 5 -48 5 -36 0 -58 -2 -48 -5z"/>
<path d="M2833 2230 c-73 -44 -67 -166 10 -204 33 -16 49 -17 100 -10 l62 9 3
45 c2 24 9 48 15 52 7 4 -15 7 -48 7 -33 -1 -52 -3 -42 -6 13 -3 17 -15 17
-49 0 -38 -3 -44 -24 -50 -31 -7 -64 11 -76 42 -25 64 0 159 44 170 31 7 76
-18 83 -47 8 -29 20 -13 15 19 -3 25 -10 31 -40 36 -61 10 -85 7 -119 -14z"/>
<path d="M3169 2223 c-6 -16 -24 -64 -40 -108 -16 -44 -37 -86 -46 -92 -14
-11 -11 -13 23 -12 21 1 31 3 22 6 -22 5 -22 5 -4 48 13 31 19 35 51 35 32 0
38 -4 51 -36 13 -30 13 -38 2 -45 -8 -5 8 -9 41 -9 46 0 52 2 39 13 -9 6 -35
60 -59 120 -24 60 -49 107 -56 107 -8 0 -18 -12 -24 -27z m24 -68 l16 -45 -34
0 -34 0 16 45 c8 25 16 45 18 45 2 0 10 -20 18 -45z"/>
<path d="M2120 1725 c-15 -18 -1 -40 31 -50 31 -10 22 -28 -11 -23 -37 6 -40
-9 -4 -18 34 -9 63 18 45 40 -7 8 -21 18 -32 21 -28 9 -23 25 7 25 14 0 23 4
19 10 -9 15 -41 12 -55 -5z"/>
<path d="M2570 1730 c-12 -8 -9 -10 13 -10 34 0 35 -19 2 -50 -35 -33 -32 -40
18 -40 33 1 38 3 24 11 -9 5 -22 7 -27 4 -16 -10 -12 4 11 35 34 45 5 80 -41
50z"/>
<path d="M2666 1724 c-32 -32 -10 -94 34 -94 21 0 40 28 40 59 0 22 -25 51
-45 51 -7 0 -21 -7 -29 -16z m54 -39 c0 -35 -20 -51 -39 -32 -25 25 -5 82 25
70 8 -3 14 -19 14 -38z"/>
<path d="M2758 1728 c7 -7 12 -31 12 -55 0 -24 5 -43 10 -43 6 0 10 25 10 55
0 50 -2 55 -22 55 -17 0 -19 -3 -10 -12z"/>
<path d="M2821 1721 c-13 -24 9 -57 33 -48 10 4 16 1 16 -8 0 -15 -11 -19 -39
-16 -7 2 -10 -2 -6 -8 18 -30 65 5 65 48 0 48 -49 71 -69 32z m47 -18 c-2 -10
-10 -18 -18 -18 -8 0 -16 8 -18 18 -2 12 3 17 18 17 15 0 20 -5 18 -17z"/>
<path d="M2213 1670 c0 -25 2 -35 4 -22 2 12 2 32 0 45 -2 12 -4 2 -4 -23z"/>
<path d="M2250 1669 c0 -22 5 -39 10 -39 6 0 10 14 10 30 0 23 4 30 20 30 16
0 20 -7 20 -30 0 -16 5 -30 10 -30 14 0 12 56 -2 68 -7 5 -25 10 -40 10 -26 0
-28 -4 -28 -39z"/>
<path d="M2363 1703 c-7 -2 -13 -17 -13 -33 0 -32 34 -51 54 -30 8 10 7 12 -6
7 -19 -7 -43 17 -33 33 3 5 15 10 26 10 10 0 19 5 19 10 0 10 -26 12 -47 3z"/>
<path d="M2442 1698 c-25 -25 -7 -68 29 -68 10 0 21 5 25 12 5 7 2 9 -8 6 -8
-4 -21 -2 -29 3 -10 6 -5 9 18 9 29 0 32 2 24 23 -9 25 -40 34 -59 15z m46
-16 c2 -7 -6 -12 -17 -12 -21 0 -27 11 -14 24 9 9 26 2 31 -12z"/>
</g>
</svg>
